<?xml version="1.0" encoding="UTF-8"?>
<svg id="Layer_2" data-name="Layer 2" xmlns="http://www.w3.org/2000/svg" viewBox="0 0 140 140">
  <defs>
    <style>
      .cls-1 {
        fill: #f9ac00;
      }

      .cls-2 {
        isolation: isolate;
      }
    </style>
  </defs>
  <g id="Layer_1-2" data-name="Layer 1">
    <g>
      <g class="cls-2">
        <path class="cls-1" d="M61.41,44.21c-.36-4.98,3.58-9.21,8.59-9.21s8.94,4.24,8.59,9.21l-2.02,28.44c-.25,3.45-3.12,6.1-6.54,6.1s-6.29-2.65-6.54-6.1l-2.02-28.44h-.05ZM78.75,96.25c0,4.83-3.92,8.75-8.75,8.75s-8.75-3.92-8.75-8.75,3.92-8.75,8.75-8.75,8.75,3.92,8.75,8.75ZM13.12,70c0,.71.27,1.42.79,1.91l54.17,54.17c.52.52,1.2.79,1.91.79s1.42-.27,1.91-.79l54.17-54.17c.52-.52.79-1.2.79-1.91s-.27-1.42-.79-1.91L71.91,13.92c-.52-.52-1.2-.79-1.91-.79s-1.42.27-1.91.79L13.92,68.09c-.52.52-.79,1.2-.79,1.91Z"/>
      </g>
      <path d="M70,35c4.98,0,8.94,4.24,8.59,9.21l-2.02,28.44c-.25,3.45-3.12,6.1-6.54,6.1s-6.29-2.65-6.54-6.1l-2.02-28.44c-.41-4.98,3.55-9.21,8.53-9.21ZM70,105c-4.83,0-8.75-3.92-8.75-8.75s3.92-8.75,8.75-8.75,8.75,3.92,8.75,8.75-3.92,8.75-8.75,8.75ZM70,13.12c-.71,0-1.42.27-1.91.79L13.92,68.09c-.52.52-.79,1.2-.79,1.91s.27,1.42.79,1.91l54.17,54.17c.52.52,1.2.79,1.91.79s1.42-.27,1.91-.79l54.17-54.17c.52-.52.79-1.2.79-1.91s-.27-1.42-.79-1.91L71.91,13.92c-.52-.52-1.2-.79-1.91-.79ZM70,0c4.21,0,8.23,1.67,11.21,4.65l54.14,54.14c2.98,2.98,4.65,7,4.65,11.21s-1.67,8.23-4.65,11.21l-54.14,54.14c-2.98,2.98-7,4.65-11.21,4.65s-8.23-1.67-11.21-4.65L4.65,81.21c-2.98-2.98-4.65-7-4.65-11.21s1.67-8.23,4.65-11.21L58.79,4.65c2.98-2.98,7-4.65,11.21-4.65Z"/>
    </g>
  </g>
</svg>