<?xml version="1.0" encoding="UTF-8"?>
<svg id="Layer_2" data-name="Layer 2" xmlns="http://www.w3.org/2000/svg" viewBox="0 0 131.3 131.26">
  <defs>
    <style>
      .cls-1 {
        fill: #00db63;
      }

      .cls-2 {
        isolation: isolate;
      }
    </style>
  </defs>
  <g id="Layer_1-2" data-name="Layer 1">
    <g>
      <g class="cls-2">
        <path class="cls-1" d="M40.47,57.87l-.03,1.12v30.87l.05,2.19c.66,8.94,5.88,16.98,13.86,21.22l3.34,1.78c.46.25.96.46,1.42.71l1.29.55c3.04,1.2,6.29,1.8,9.6,1.8h28.46l.66-.03c3.31-.33,5.91-3.12,5.91-6.51l-.05-.71c-.03-.25-.05-.46-.11-.71-.74-3.31,1.18-6.62,4.38-7.66,2.65-.85,4.54-3.34,4.54-6.23l-.05-.88c-.11-.85-.38-1.64-.79-2.35-1.72-3.04-.77-6.89,2.19-8.75,1.86-1.18,3.04-3.23,3.06-5.52l-.05-.74c-.19-1.64-.98-3.12-2.19-4.18-1.42-1.26-2.24-3.04-2.24-4.92s.82-3.69,2.24-4.92c1.39-1.23,2.24-2.98,2.24-4.92l-.03-.68c-.33-3.09-2.76-5.55-5.85-5.85l-.66-.03h-40.33c-2.24,0-4.32-1.15-5.52-3.04s-1.37-4.27-.41-6.32l8.26-17.55.33-.82c1.37-3.91-.19-8.26-3.75-10.39l-.85-.44c-4.05-1.91-8.86-.41-11.16,3.34l-.57,1.04-15.53,33.06c-.96,2.05-1.5,4.27-1.64,6.48Z"/>
      </g>
      <path d="M69.37,13.96c-4.05-1.91-8.86-.41-11.16,3.34l-.57,1.04-15.53,33.06c-.96,2.05-1.5,4.27-1.64,6.48l-.03,1.12v30.87l.05,2.19c.66,8.94,5.88,16.98,13.86,21.22l3.34,1.78,1.45.71,1.29.55c3.04,1.2,6.29,1.8,9.6,1.8h28.46l.66-.03c3.31-.33,5.91-3.12,5.91-6.51l-.05-.71c-.03-.25-.05-.46-.11-.71-.74-3.31,1.18-6.62,4.38-7.66,2.65-.85,4.54-3.34,4.54-6.23l-.05-.88c-.11-.85-.38-1.64-.79-2.35-1.72-3.04-.77-6.89,2.19-8.75,1.86-1.18,3.04-3.23,3.06-5.52l-.05-.74c-.19-1.64-.98-3.12-2.19-4.18-1.42-1.26-2.24-3.04-2.24-4.92s.82-3.69,2.24-4.92c1.39-1.23,2.24-2.98,2.24-4.92l-.03-.68c-.33-3.09-2.76-5.55-5.85-5.85l-.66-.03h-40.33c-2.24,0-4.32-1.15-5.52-3.04s-1.37-4.27-.41-6.32l8.26-17.55.33-.82c1.37-3.91-.19-8.26-3.75-10.39l-.88-.44ZM15.34,52.51c-1.2,0-2.19.98-2.19,2.19v61.25c0,1.2.98,2.19,2.19,2.19h8.75c1.2,0,2.19-.98,2.19-2.19v-61.25c0-1.2-.98-2.19-2.19-2.19h-8.75ZM46.92,10.6c5.69-9.49,17.77-13.34,28.03-8.5l1.97,1.07c8.86,5.33,12.8,16.21,9.35,25.98l-.85,2.08-3.86,8.2h30l2.02.11c9.95.96,17.69,9.35,17.69,19.55l-.11,2.19c-.3,2.76-1.2,5.36-2.54,7.66,1.67,2.9,2.65,6.23,2.68,9.84l-.05,1.31c-.3,4.48-2.11,8.53-4.87,11.68.36,1.45.55,2.95.55,4.51l-.05,1.64c-.49,6.18-3.88,11.51-8.75,14.74-.52,9.71-8.04,17.55-17.61,18.51l-2.02.11h-28.46c-4.92,0-9.82-.93-14.38-2.71l-1.94-.82-.19-.08-1.8-.9-.19-.08-3.34-1.78c-3.34-1.78-6.37-4.02-9-6.59-1.12,7.36-7.46,12.96-15.12,12.96h-8.75c-8.45,0-15.31-6.86-15.31-15.31l.03-61.25c0-8.45,6.86-15.31,15.31-15.31h8.75c2.95,0,5.71.85,8.07,2.32l13.7-29.12.16-.33.74-1.37.16-.25v-.05Z"/>
    </g>
  </g>
</svg>