<?xml version="1.0" encoding="UTF-8"?>
<svg id="Layer_2" data-name="Layer 2" xmlns="http://www.w3.org/2000/svg" viewBox="0 0 131.24 140">
  <defs>
    <style>
      .cls-1 {
        isolation: isolate;
      }

      .cls-2 {
        fill: #e80500;
      }
    </style>
  </defs>
  <g id="Layer_1-2" data-name="Layer 1">
    <g>
      <g class="cls-1">
        <path class="cls-2" d="M14.4,80.04c-1.7,1.7-1.7,4.48,0,6.18l24.01,24.01c10.66,10.66,25.13,16.65,40.22,16.65h3.66c.16-.03.36-.03.52-.05,19.06-.93,34.34-16.21,35.27-35.27,0-.16.03-.36.05-.52v-47.28c0-2.41-1.97-4.38-4.38-4.38s-4.38,1.97-4.38,4.38v19.69c0,3.64-2.93,6.56-6.56,6.56s-6.56-2.93-6.56-6.56V26.25c0-2.41-1.97-4.38-4.38-4.38s-4.38,1.94-4.38,4.38v37.19c0,3.64-2.93,6.56-6.56,6.56s-6.56-2.93-6.56-6.56V17.5c0-2.41-1.97-4.38-4.38-4.38s-4.38,1.97-4.38,4.38v45.94c0,3.64-2.93,6.56-6.56,6.56s-6.56-2.93-6.56-6.56V26.22c0-2.41-1.97-4.35-4.38-4.35s-4.38,1.97-4.38,4.38v61.09c0,2.65-1.59,5.06-4.05,6.07s-5.28.46-7.16-1.42l-11.98-11.95c-1.7-1.7-4.48-1.7-6.18,0Z"/>
      </g>
      <path d="M65.61,26.28v-8.78c0-2.41,1.97-4.38,4.38-4.38s4.38,1.97,4.38,4.38v45.94c0,3.64,2.93,6.56,6.56,6.56s6.56-2.93,6.56-6.56V26.25c0-2.41,1.97-4.38,4.38-4.38s4.38,1.97,4.38,4.38v37.19c0,3.64,2.93,6.56,6.56,6.56s6.56-2.93,6.56-6.56v-19.69c0-2.41,1.97-4.38,4.38-4.38s4.38,1.97,4.38,4.38v47.28c-.03.16-.03.36-.05.52-.93,19.06-16.21,34.34-35.27,35.27-.16,0-.36.03-.52.05h-3.66c-15.07,0-29.53-5.99-40.2-16.65l-24.01-24.01c-1.7-1.7-1.7-4.48,0-6.18s4.48-1.7,6.18,0l11.95,11.95c1.89,1.89,4.7,2.43,7.16,1.42s4.05-3.42,4.05-6.07V26.25c0-2.41,1.97-4.38,4.38-4.38s4.38,1.94,4.38,4.35v37.21c0,3.64,2.93,6.56,6.56,6.56s6.56-2.93,6.56-6.56V26.28ZM69.99,0c-6.92,0-12.91,4.02-15.75,9.84-1.91-.71-3.96-1.09-6.12-1.09-9.65,0-17.5,7.85-17.5,17.5v45.25l-.74-.74c-6.84-6.84-17.91-6.84-24.75,0s-6.84,17.91,0,24.75l23.98,23.98c13.12,13.12,30.93,20.51,49.49,20.51h4.51c.41,0,.82-.03,1.23-.11,25.07-1.7,45.12-21.71,46.79-46.79.08-.41.11-.82.11-1.23v-48.12c0-9.65-7.85-17.5-17.5-17.5-1.5,0-2.98.19-4.38.55v-.55c0-9.65-7.85-17.5-17.5-17.5-2.16,0-4.21.38-6.12,1.09-2.84-5.82-8.83-9.84-15.75-9.84Z"/>
    </g>
  </g>
</svg>